
<svg viewBox="0 0 67 67" xmlns="http://www.w3.org/2000/svg">
  <path d="M51.843,7.419c4.062,0 7.404,3.343 7.404,7.404l0,37.02c0,4.062 -3.342,7.404 -7.404,7.404l-37.02,0c-4.061,0 -7.404,-3.342 -7.404,-7.404l0,-37.02c0,-4.061 3.343,-7.404 7.404,-7.404l37.02,0Zm-37.02,-3.702c-6.092,0 -11.106,5.014 -11.106,11.106l0,37.02c0,6.093 5.014,11.106 11.106,11.106l37.02,0c6.093,0 11.106,-5.013 11.106,-11.106l0,-37.02c0,-6.092 -5.013,-11.106 -11.106,-11.106l-37.02,0Z" />
  <path
    d="M24.078,18.525c0,3.047 -2.506,5.553 -5.553,5.553c-3.046,0 -5.553,-2.506 -5.553,-5.553c0,-3.046 2.507,-5.553 5.553,-5.553c3.047,0 5.553,2.507 5.553,5.553Zm29.616,0c0,3.047 -2.506,5.553 -5.553,5.553c-3.046,0 -5.553,-2.506 -5.553,-5.553c0,-3.046 2.507,-5.553 5.553,-5.553c3.047,0 5.553,2.507 5.553,5.553Zm0,29.616c0,3.047 -2.506,5.553 -5.553,5.553c-3.046,0 -5.553,-2.506 -5.553,-5.553c0,-3.046 2.507,-5.553 5.553,-5.553c3.047,0 5.553,2.507 5.553,5.553Zm-29.616,0c0,3.047 -2.506,5.553 -5.553,5.553c-3.046,0 -5.553,-2.506 -5.553,-5.553c0,-3.046 2.507,-5.553 5.553,-5.553c3.047,0 5.553,2.507 5.553,5.553Z"/>
</svg>
